# xmcd
#
# Track frame offsets:
#	150
#	10676
#	31268
#	44666
#	64857
#	83459
#	95267
#	116257
#	129018
#	151117
#	175570
#	197365
#	213169
#	236479
#	250921
#	260033
#	277922
#	296693
#	307112
#	329243
#
# Disc length: 4608 seconds
# Revision: 0
# Processed by: cddbd v1.5.2PL0 Copyright (c) Steve Scherf et al.
# Submitted via: dBpowerAMP V12.0
#
DISCID=0711fe14
DTITLE=Paul Oscher - The Best of Paul Oscher Vol. 2 - True to the Spirit of the Blues
DYEAR=2012
DGENRE=Blues
TTITLE0=Walkin'
TTITLE1=That's Alright
TTITLE2=Wee Baby Blues
TTITLE3=Blues and Trouble
TTITLE4=Georgia
TTITLE5=Deborah's Baby
TTITLE6=Standing at the Crossroads
TTITLE7=What a Friend We Have in Jesus
TTITLE8=Driftin' Blues
TTITLE9=Alone with the Blues
TTITLE10=Rock Me
TTITLE11=So Lonesome
TTITLE12=Chitlins con Carne
TTITLE13=Round Midnight
TTITLE14=Slideaway after Hideaway
TTITLE15=Ida Mae
TTITLE16=What have I done
TTITLE17=Blues in the Dark
TTITLE18=Robin Lee
TTITLE19=Jesus Wont You Come by Here
EXTD=
EXTT0=
EXTT1=
EXTT2=
EXTT3=
EXTT4=
EXTT5=
EXTT6=
EXTT7=
EXTT8=
EXTT9=
EXTT10=
EXTT11=
EXTT12=
EXTT13=
EXTT14=
EXTT15=
EXTT16=
EXTT17=
EXTT18=
EXTT19=
PLAYORDER=
